<svg xmlns="http://www.w3.org/2000/svg" version="1.1" xmlns:xlink="http://www.w3.org/1999/xlink" xmlns:svgjs="http://svgjs.dev/svgjs" width="2000" height="2000" viewBox="0 0 2000 2000"><g transform="matrix(1,0,0,1,-0.28443113772425477,-0.28443113772459583)"><svg viewBox="0 0 334 334" data-background-color="#ffffff" preserveAspectRatio="xMidYMid meet" height="2000" width="2000" xmlns="http://www.w3.org/2000/svg" xmlns:xlink="http://www.w3.org/1999/xlink"><g id="tight-bounds" transform="matrix(1,0,0,1,0.04749999999998522,0.04750000000001364)"><svg viewBox="0 0 333.90454557049503 333.90454557049503" height="333.90454557049503" width="333.90454557049503"><g><svg></svg></g><g><svg viewBox="0 0 333.90454557049503 333.90454557049503" height="333.90454557049503" width="333.90454557049503"><g><path d="M0 166.952c0-92.205 74.747-166.952 166.952-166.952 92.205 0 166.952 74.747 166.953 166.952 0 92.205-74.747 166.952-166.953 166.953-92.205 0-166.952-74.747-166.952-166.953zM166.952 330.191c90.155 0 163.239-73.085 163.239-163.239 0-90.155-73.085-163.239-163.239-163.239-90.155 0-163.239 73.085-163.239 163.239 0 90.155 73.085 163.239 163.239 163.239z" data-fill-palette-color="tertiary" fill="#ffffff" stroke="transparent"></path><ellipse rx="160.27418187383762" ry="160.27418187383762" cx="166.95227278524752" cy="166.95227278524752" fill="#ffffff" stroke="transparent" stroke-width="0" fill-opacity="1" data-fill-palette-color="tertiary"></ellipse></g><g transform="matrix(1,0,0,1,92.64640612679851,71.17305217166896)"><svg viewBox="0 0 148.611733316898 191.55844122715712" height="191.55844122715712" width="148.611733316898"><g><svg viewBox="0 0 148.611733316898 191.55844122715712" height="191.55844122715712" width="148.611733316898"><g><svg viewBox="0 0 213.1584412271571 274.7582430036965" height="191.55844122715712" width="148.611733316898"><g transform="matrix(1,0,0,1,0,165.26349758238086)"><svg viewBox="0 0 213.1584412271571 109.49474542131566" height="109.49474542131566" width="213.1584412271571"><g id="textblocktransform"><svg viewBox="0 0 213.1584412271571 109.49474542131566" height="109.49474542131566" width="213.1584412271571" id="textblock"><g><svg viewBox="0 0 213.1584412271571 59.05623362867307" height="59.05623362867307" width="213.1584412271571"><g transform="matrix(1,0,0,1,0,0)"><svg width="213.1584412271571" viewBox="2.7 -39.25 141.84 39.3" height="59.05623362867307" data-palette-color="#e6b17e"><path d="M15.2-0.05Q11.2-0.05 8.38-1.68 5.55-3.3 4.13-6.03 2.7-8.75 2.7-12.1L2.7-12.1Q2.7-15.65 4.2-18.75 5.7-21.85 8.58-23.75 11.45-25.65 15.4-25.65L15.4-25.65Q19.7-25.65 22.43-23.6 25.15-21.55 26.35-18.65L26.35-18.65Q26.55-18.25 26.55-17.8L26.55-17.8Q26.55-17.25 26.08-16.85 25.6-16.45 24.75-16.45L24.75-16.45Q24.15-16.45 23.75-16.78 23.35-17.1 23-17.8L23-17.8Q22.25-19.75 20.33-21.13 18.4-22.5 15.65-22.5L15.65-22.5Q12.9-22.5 10.8-21.05 8.7-19.6 7.6-17.23 6.5-14.85 6.5-12.2L6.5-12.2Q6.5-8.3 8.8-5.75 11.1-3.2 15.3-3.2L15.3-3.2Q18-3.2 19.88-4.25 21.75-5.3 22.73-6.88 23.7-8.45 23.8-10.05L23.8-10.05Q23.8-10.6 24.18-10.93 24.55-11.25 25.3-11.25L25.3-11.25Q27.2-11.25 27.2-9.6L27.2-9.6Q27.2-7.4 25.8-5.2 24.4-3 21.68-1.53 18.95-0.05 15.2-0.05L15.2-0.05ZM54.4-19Q55.1-16.2 55.35-12.05 55.6-7.9 55.6-1.5L55.6-1.5Q55.6-0.85 55.07-0.43 54.55 0 53.7 0L53.7 0Q52.85 0 52.32-0.43 51.8-0.85 51.8-1.7L51.8-1.7Q51.8-14.85 50.7-18.4L50.7-18.4Q50.1-20.45 48.97-21.38 47.85-22.3 45.95-22.3L45.95-22.3Q43.35-22.3 41.55-20.78 39.75-19.25 38.85-16.9 37.95-14.55 37.95-12L37.95-12 37.95-1.45Q37.95-0.85 37.4-0.45 36.85-0.05 36.05-0.05L36.05-0.05Q35.2-0.05 34.67-0.45 34.15-0.85 34.15-1.5L34.15-1.5Q34.15-11.85 34.4-21L34.4-21Q34.65-29.2 35.2-37.5L35.2-37.5Q35.35-39.25 37.1-39.25L37.1-39.25Q37.9-39.25 38.42-38.88 38.95-38.5 38.9-37.85L38.9-37.85 38.55-30.85Q38.25-24.4 38.05-21.45L38.05-21.45Q39.3-23.3 41.35-24.53 43.4-25.75 46.45-25.75L46.45-25.75Q49.75-25.75 51.62-24.1 53.5-22.45 54.4-19L54.4-19ZM72.5 0.05Q66.84 0.05 63.12-2.95 59.4-5.95 59.4-12.35L59.4-12.35Q59.4-16.35 60.92-19.38 62.45-22.4 65.34-24.1 68.25-25.8 72.2-25.8L72.2-25.8Q76-25.8 79.02-24.23 82.05-22.65 83.77-19.63 85.5-16.6 85.5-12.4L85.5-12.4Q85.5-6.3 81.92-3.13 78.34 0.05 72.5 0.05L72.5 0.05ZM72.4-3.1Q76.4-3.1 79.02-5.48 81.65-7.85 81.65-12.45L81.65-12.45Q81.65-15.45 80.47-17.78 79.3-20.1 77.17-21.38 75.05-22.65 72.3-22.65L72.3-22.65Q68.2-22.65 65.72-19.85 63.25-17.05 63.25-12.45L63.25-12.45Q63.25-7.6 65.9-5.35 68.55-3.1 72.4-3.1L72.4-3.1ZM102.44-0.05Q98.44-0.05 95.62-1.68 92.79-3.3 91.37-6.03 89.94-8.75 89.94-12.1L89.94-12.1Q89.94-15.65 91.44-18.75 92.94-21.85 95.82-23.75 98.69-25.65 102.64-25.65L102.64-25.65Q106.94-25.65 109.67-23.6 112.39-21.55 113.59-18.65L113.59-18.65Q113.79-18.25 113.79-17.8L113.79-17.8Q113.79-17.25 113.32-16.85 112.84-16.45 111.99-16.45L111.99-16.45Q111.39-16.45 110.99-16.78 110.59-17.1 110.24-17.8L110.24-17.8Q109.49-19.75 107.57-21.13 105.64-22.5 102.89-22.5L102.89-22.5Q100.14-22.5 98.04-21.05 95.94-19.6 94.84-17.23 93.74-14.85 93.74-12.2L93.74-12.2Q93.74-8.3 96.04-5.75 98.34-3.2 102.54-3.2L102.54-3.2Q105.24-3.2 107.12-4.25 108.99-5.3 109.97-6.88 110.94-8.45 111.04-10.05L111.04-10.05Q111.04-10.6 111.42-10.93 111.79-11.25 112.54-11.25L112.54-11.25Q114.44-11.25 114.44-9.6L114.44-9.6Q114.44-7.4 113.04-5.2 111.64-3 108.92-1.53 106.19-0.05 102.44-0.05L102.44-0.05ZM131.54 0.05Q125.89 0.05 122.17-2.95 118.44-5.95 118.44-12.35L118.44-12.35Q118.44-16.35 119.97-19.38 121.49-22.4 124.39-24.1 127.29-25.8 131.24-25.8L131.24-25.8Q135.04-25.8 138.07-24.23 141.09-22.65 142.82-19.63 144.54-16.6 144.54-12.4L144.54-12.4Q144.54-6.3 140.97-3.13 137.39 0.05 131.54 0.05L131.54 0.05ZM131.44-3.1Q135.44-3.1 138.07-5.48 140.69-7.85 140.69-12.45L140.69-12.45Q140.69-15.45 139.52-17.78 138.34-20.1 136.22-21.38 134.09-22.65 131.34-22.65L131.34-22.65Q127.24-22.65 124.77-19.85 122.29-17.05 122.29-12.45L122.29-12.45Q122.29-7.6 124.94-5.35 127.59-3.1 131.44-3.1L131.44-3.1Z" opacity="1" transform="matrix(1,0,0,1,0,0)" fill="#000000" class="wordmark-text-0" data-fill-palette-color="quaternary" id="text-0"></path></svg></g></svg></g><g transform="matrix(1,0,0,1,0,72.9979930387957)"><svg viewBox="0 0 213.1584412271571 36.49675238251996" height="36.49675238251996" width="213.1584412271571"><g transform="matrix(1,0,0,1,0,0)"><svg width="213.1584412271571" viewBox="3.05 -33.55 201.5 34.5" height="36.49675238251996" data-palette-color="#e6b17e"><path d="M8.5 0.8L7.3 0.35Q6.35 0.05 5.68-0.5 5-1.05 4.4-2.15L4.4-2.15Q3.35-4.15 3.15-7.9L3.15-7.9Q3.05-9.6 3.05-10.9L3.05-10.9 3.05-16.6Q3.05-19.85 3.25-22.9L3.25-22.9Q3.4-25.15 3.7-26.7 4-28.25 4.65-29.8L4.65-29.8Q5.35-31.4 6.2-32.05L6.2-32.05Q6.55-32.35 7.55-32.75L7.55-32.75Q8.2-33 8.8-33.3L8.8-33.3 10.8-33.3 10.95-33.3Q11-33.25 11.1-33.25L11.1-33.25 11.35-33.2 11.55-33.05Q11.7-32.9 11.7-32.85L11.7-32.85Q11.75-32.75 11.75-32.55L11.75-32.55 11.1-31.8 9-31.8Q8.05-31.8 7.28-30.88 6.5-29.95 6.1-28.55L6.1-28.55Q5.7-27.3 5.45-25.6 5.2-23.9 5.15-22.65L5.15-22.65Q5.05-21.05 5.05-20.45L5.05-20.45 4.95-20.2Q4.95-17.4 4.85-15.15L4.85-15.15 4.75-10.1Q4.75-7.9 5.05-6.05L5.05-6.05Q5.3-4.05 6.5-2.45L6.5-2.45Q7.65-0.85 10.05-0.85L10.05-0.85Q10.8-0.85 11.3-1.3L11.3-1.3Q12.05-1.3 12.05-0.75L12.05-0.75Q12.05-0.4 11.43 0.08 10.8 0.55 10.15 0.8L10.15 0.8 8.5 0.8ZM58.85 0.55Q58.85 0.05 57.35 0.05L57.35 0.05Q57.1-9.2 57.1-13.35L57.1-13.35 56.95-13.55 57.15-14Q57.15-14.9 56.95-15.85L56.95-15.85 56.2-16.05Q55.75-15.9 55.2-15.9L55.2-15.9Q54.8-15.9 53.55-16.15L53.55-16.15Q52.7-16.4 52-16.4L52-16.4 51.45-16.2Q51.45-14.45 51.4-13.05L51.4-13.05Q51.35-11.65 51.35-9.9L51.35-9.9 51.45-9.7Q51.45-8.3 51.6-5.5L51.6-5.5Q51.75-2.75 51.75-1.35L51.75-1.35Q51.75-0.8 51.55-0.43 51.35-0.05 50.95-0.05L50.95-0.05Q49.85-0.05 49.85-3.05L49.85-3.05Q49.85-5.6 49.9-7.65L49.9-7.65 49.95-12.2Q49.95-16.75 49.8-17.1L49.8-17.1Q50.05-17.6 50.05-20.4L50.05-20.4Q50.05-22.8 49.85-26.25L49.85-26.25 49.75-28.2 49.65-32.1Q49.65-32.45 49.9-32.75 50.15-33.05 50.5-33.05L50.5-33.05Q51.5-33.05 51.5-30.15L51.5-30.15Q51.5-26.75 51.45-24L51.45-24Q51.35-21.25 51.35-17.95L51.35-17.95Q51.35-17.35 55.15-17.35L55.15-17.35 55.35-17.35Q56.3-17.35 56.72-17.73 57.15-18.1 57.15-19L57.15-19Q57.15-21.65 56.8-25.9L56.8-25.9Q56.5-30.5 56.5-32.8L56.5-32.8Q56.5-33.1 56.75-33.33 57-33.55 57.35-33.55L57.35-33.55 57.8-33.4Q58.15-33.35 58.25-33.25L58.25-33.25Q58.25-29.35 58.55-21.6L58.55-21.6Q58.85-13.8 58.85-9.9L58.85-9.9Q58.85-4 59.2 0L59.2 0 58.85 0.55ZM55.7-17.95L55.7-18.05 55.8-17.95 55.7-17.95ZM103.4 0.95Q97.55 0.95 97.55-17.45L97.55-17.45 97.55-19.2Q97.55-33.15 101.15-33.15L101.15-33.15Q101.4-33.15 101.85-33L101.85-33Q103.45-32.45 105-32.3L105-32.3Q105.95-32.1 106.9-30.35L106.9-30.35Q107.95-28.55 108.47-25.6 109-22.65 109-19.55L109-19.55 108.9-19.3Q108.9-17.65 108.95-16.35L108.95-16.35 109-13.35Q109-10.8 108.8-8.75L108.8-8.75Q108.5-5.65 107.8-3.4L107.8-3.4Q107.35-2.05 106.77-1.15 106.2-0.25 105.35 0.35L105.35 0.35Q104.55 0.95 103.4 0.95L103.4 0.95ZM103.2-0.5Q105.15-0.5 106.1-3.25L106.1-3.25Q107.05-6.05 107.25-8.95L107.25-8.95Q107.45-11.95 107.45-13.75L107.45-13.75Q107.45-15.75 107.15-19.65L107.15-19.65Q106.9-24 106.9-25.55L106.9-25.55 106.7-25.95 106.8-26.2Q106.8-28.4 105.57-30 104.35-31.6 102.6-31.6L102.6-31.6Q100.3-31.6 99.85-29.4L99.85-29.4Q99.75-28.65 99.65-27.25L99.65-27.25Q99.65-23.55 99.35-22.2L99.35-22.2Q99.35-21.45 99.2-19.85L99.2-19.85 99.1-17.5Q99.1-16.4 99.15-15.55L99.15-15.55 99.2-13.55Q99.2-11.2 99.6-8.15L99.6-8.15Q99.9-5.9 100.3-4.35 100.7-2.8 101.45-1.7L101.45-1.7Q102.2-0.5 103.2-0.5L103.2-0.5ZM152.4 0.8L151.2 0.35Q150.25 0.05 149.57-0.5 148.9-1.05 148.3-2.15L148.3-2.15Q147.25-4.15 147.05-7.9L147.05-7.9Q146.95-9.6 146.95-10.9L146.95-10.9 146.95-16.6Q146.95-19.85 147.15-22.9L147.15-22.9Q147.3-25.15 147.6-26.7 147.9-28.25 148.55-29.8L148.55-29.8Q149.25-31.4 150.1-32.05L150.1-32.05Q150.45-32.35 151.45-32.75L151.45-32.75Q152.1-33 152.7-33.3L152.7-33.3 154.7-33.3 154.85-33.3Q154.9-33.25 155-33.25L155-33.25 155.25-33.2 155.45-33.05Q155.6-32.9 155.6-32.85L155.6-32.85Q155.65-32.75 155.65-32.55L155.65-32.55 155-31.8 152.9-31.8Q151.95-31.8 151.17-30.88 150.4-29.95 150-28.55L150-28.55Q149.6-27.3 149.35-25.6 149.1-23.9 149.05-22.65L149.05-22.65Q148.95-21.05 148.95-20.45L148.95-20.45 148.85-20.2Q148.85-17.4 148.75-15.15L148.75-15.15 148.65-10.1Q148.65-7.9 148.95-6.05L148.95-6.05Q149.2-4.05 150.4-2.45L150.4-2.45Q151.55-0.85 153.95-0.85L153.95-0.85Q154.7-0.85 155.2-1.3L155.2-1.3Q155.95-1.3 155.95-0.75L155.95-0.75Q155.95-0.4 155.32 0.08 154.7 0.55 154.05 0.8L154.05 0.8 152.4 0.8ZM198.95 0.95Q193.1 0.95 193.1-17.45L193.1-17.45 193.1-19.2Q193.1-33.15 196.7-33.15L196.7-33.15Q196.95-33.15 197.4-33L197.4-33Q199-32.45 200.55-32.3L200.55-32.3Q201.5-32.1 202.45-30.35L202.45-30.35Q203.5-28.55 204.02-25.6 204.55-22.65 204.55-19.55L204.55-19.55 204.45-19.3Q204.45-17.65 204.5-16.35L204.5-16.35 204.55-13.35Q204.55-10.8 204.35-8.75L204.35-8.75Q204.05-5.65 203.35-3.4L203.35-3.4Q202.9-2.05 202.32-1.15 201.75-0.25 200.9 0.35L200.9 0.35Q200.1 0.95 198.95 0.95L198.95 0.95ZM198.75-0.5Q200.7-0.5 201.65-3.25L201.65-3.25Q202.6-6.05 202.8-8.95L202.8-8.95Q203-11.95 203-13.75L203-13.75Q203-15.75 202.7-19.65L202.7-19.65Q202.45-24 202.45-25.55L202.45-25.55 202.25-25.95 202.35-26.2Q202.35-28.4 201.12-30 199.9-31.6 198.15-31.6L198.15-31.6Q195.85-31.6 195.4-29.4L195.4-29.4Q195.3-28.65 195.2-27.25L195.2-27.25Q195.2-23.55 194.9-22.2L194.9-22.2Q194.9-21.45 194.75-19.85L194.75-19.85 194.65-17.5Q194.65-16.4 194.7-15.55L194.7-15.55 194.75-13.55Q194.75-11.2 195.15-8.15L195.15-8.15Q195.45-5.9 195.85-4.35 196.25-2.8 197-1.7L197-1.7Q197.75-0.5 198.75-0.5L198.75-0.5Z" opacity="1" transform="matrix(1,0,0,1,0,0)" fill="#000000" class="slogan-text-1" data-fill-palette-color="quaternary" id="text-1"></path></svg></g></svg></g></svg></g></svg></g><g transform="matrix(1,0,0,1,44.174633456130586,0)"><svg viewBox="0 0 124.80917431489594 151.32173817225825" height="151.32173817225825" width="124.80917431489594"><g><svg xmlns="http://www.w3.org/2000/svg" xmlns:xlink="http://www.w3.org/1999/xlink" version="1.1" x="0" y="0" viewBox="12.912107532417096 4.997880386140802 74.23315626211611 90.0021196138592" style="enable-background:new 0 0 100 100;" xml:space="preserve" height="151.32173817225825" width="124.80917431489594" class="icon-icon-0" data-fill-palette-color="quaternary" id="icon-0"><path d="M77.6 8.6C63.5-1.3 38.5 9.9 21.9 33.7c-6.8 9.7-9.8 23.2-8.8 39.1 0.8 11.9 3.6 20.8 3.7 21.1l0.4 1.1 1.2-0.1c0.4 0 9.7-0.5 21.1-3.8 15.2-4.4 26.9-11.9 33.7-21.6C81.1 58.2 86 45.7 87 34.3 87.9 22.6 84.6 13.5 77.6 8.6zM42.1 42.8c-13.2 19.4-20.1 36.6-22.9 45 0.6-9.8 3.5-30.9 15.9-51 11.1-17.9 29.5-23.7 37.6-25.4C66.8 15.2 54.5 24.7 42.1 42.8zM75.5 11.5c-1 5.2-5 21.3-19.3 41.2-15.4 21.5-31 34.3-36.5 38.5 2.1-6.6 8.8-25.6 23.7-47.4C57.2 23.4 70.9 14.2 75.5 11.5zM57.5 53.5c12.8-17.8 17.4-32.7 19-39.5 1.2 8.2 2 27.4-11 44C51 76.6 32.1 86.5 23.1 90.4 30 84.9 43.8 72.6 57.5 53.5zM24.4 35.5C36.3 18.4 52.6 8 65.3 8c2.8 0 5.5 0.5 7.9 1.6-7.9 1.6-27.6 7.3-39.4 26.2-11.6 18.7-15 38.3-16 49.1C15.6 73.3 13.4 51.2 24.4 35.5zM83.8 34c-0.9 10.8-5.6 22.8-13.3 33.8C59.4 83.8 37.2 89.2 25.6 91c9.7-4.5 27.3-14.4 41.1-32C80.6 41.4 79.2 20.8 78 12.9 82.5 17.4 84.6 24.8 83.8 34z" fill="#000000" data-fill-palette-color="quaternary"></path></svg></g></svg></g><g></g></svg></g></svg></g></svg></g></svg></g><defs></defs></svg><rect width="333.90454557049503" height="333.90454557049503" fill="none" stroke="none" visibility="hidden"></rect></g></svg></g></svg>